<mxfile host="app.diagrams.net" modified="2021-04-30T14:26:52.546Z" agent="5.0 (Windows)" etag="yB4PLO_2gyKDT5FIkuMF" version="14.6.9" type="github">
  <diagram id="DpQZF1EIzQMoni-CAR5G" name="Page-1">
    <mxGraphModel dx="1180" dy="636" grid="1" gridSize="10" guides="1" tooltips="1" connect="1" arrows="1" fold="1" page="1" pageScale="1" pageWidth="1100" pageHeight="850" math="0" shadow="0">
      <root>
        <mxCell id="0" />
        <mxCell id="1" parent="0" />
        <mxCell id="mS6TvRcs7-wOkV8zuj-R-3" value="Welcome Message" style="rounded=1;whiteSpace=wrap;html=1;fillColor=#b1ddf0;strokeColor=#10739e;" parent="1" vertex="1">
          <mxGeometry x="480" y="40" width="120" height="40" as="geometry" />
        </mxCell>
      </root>
    </mxGraphModel>
  </diagram>
</mxfile>
